HIERARCHY
ROOT Hips
{
	OFFSET 0.00000 0.00000 0.00000
	CHANNELS 6 Xposition Yposition Zposition Zrotation Yrotation Xrotation 
	JOINT LHipJoint
	{
		OFFSET 0 0 0
		CHANNELS 3 Zrotation Yrotation Xrotation
		JOINT LeftHip
		{
			OFFSET 1.75344 -1.53157 0.77399
			CHANNELS 3 Zrotation Yrotation Xrotation
			JOINT LeftKnee
			{
				OFFSET 2.25415 -6.19323 0.00000
				CHANNELS 3 Zrotation Yrotation Xrotation
				JOINT LeftAnkle
				{
					OFFSET 2.30342 -6.32861 0.00000
					CHANNELS 3 Zrotation Yrotation Xrotation
					JOINT LeftToe
					{
						OFFSET 0.10958 -0.30108 1.49206
						CHANNELS 3 Zrotation Yrotation Xrotation
						End Site
						{
							OFFSET 0.00000 -0.00000 0.77783
						}
					}
				}
			}
		}
	}
	JOINT RHipJoint
	{
		OFFSET 0 0 0
		CHANNELS 3 Zrotation Yrotation Xrotation
		JOINT RightHip
		{
			OFFSET -1.81912 -1.53156 0.77399
			CHANNELS 3 Zrotation Yrotation Xrotation
			JOINT RightKnee
			{
				OFFSET -2.22882 -6.12365 0.00000
				CHANNELS 3 Zrotation Yrotation Xrotation
				JOINT RightAnkle
				{
					OFFSET -2.21943 -6.09785 0.00000
					CHANNELS 3 Zrotation Yrotation Xrotation
					JOINT RightToe
					{
						OFFSET -0.18931 -0.52012 1.59379
						CHANNELS 3 Zrotation Yrotation Xrotation
						End Site
						{
							OFFSET -0.00000 -0.00000 0.84686
						}
					}
				}
			}
		}
	}
	JOINT lowerback
	{
		OFFSET 0 0 0
		CHANNELS 3 Zrotation Yrotation Xrotation
		JOINT Chest
		{
			OFFSET -0.00200 1.66634 -0.14248
			CHANNELS 3 Zrotation Yrotation Xrotation
			JOINT Chest2
			{
				OFFSET -0.00875 1.64542 0.09514
				CHANNELS 3 Zrotation Yrotation Xrotation
				JOINT lowerneck
				{
					OFFSET 0 0 0
					CHANNELS 3 Zrotation Yrotation Xrotation
					JOINT Neck
					{
						OFFSET 0.02257 1.59605 0.00839
						CHANNELS 3 Zrotation Yrotation Xrotation
						JOINT Head
						{
							OFFSET -0.10214 1.57530 -0.23335
							CHANNELS 3 Zrotation Yrotation Xrotation
							End Site
							{
								OFFSET -0.03588 1.60717 -0.08062
							}
						}
					}
				}
				JOINT LeftCollar
				{
					OFFSET 0 0 0
					CHANNELS 3 Zrotation Yrotation Xrotation
					JOINT LeftShoulder
					{
						OFFSET 2.54983 1.10186 0.40078
CHANNELS 3 Zrotation Xrotation Yrotation
						JOINT LeftElbow
						{
OFFSET 0 -4.288400 0.000000
CHANNELS 3 Zrotation Xrotation Yrotation
							JOINT LeftWrist
							{
OFFSET 0 -3.065520 -0.000000
CHANNELS 3 Zrotation Xrotation Yrotation
								JOINT lhand
								{
									OFFSET 0 0 0
CHANNELS 3 Zrotation Xrotation Yrotation
									JOINT LFingers
									{
OFFSET 0 -0.753040 0.000000
CHANNELS 3 Zrotation Xrotation Yrotation
										End Site
										{
OFFSET 0 -0.607120 0.000000
										}
									}
								}
								JOINT LThumb
								{
OFFSET 0 0.000000 0.000000
CHANNELS 3 Zrotation Xrotation Yrotation
									End Site
									{
OFFSET 0 -0.616390 0.616390
									}
								}
							}
						}
					}
				}
				JOINT RightCollar
				{
					OFFSET 0 0 0
					CHANNELS 3 Zrotation Yrotation Xrotation
					JOINT RightShoulder
					{
						OFFSET -2.60909 1.35448 0.21802
CHANNELS 3 Zrotation Xrotation Yrotation
						JOINT RightElbow
						{
OFFSET 0 -4.521720 -0.000000
CHANNELS 3 Zrotation Xrotation Yrotation
							JOINT RightWrist
							{
OFFSET 0 -2.891400 0.000000
CHANNELS 3 Zrotation Xrotation Yrotation
								JOINT rhand
								{
									OFFSET 0 0 0
CHANNELS 3 Zrotation Xrotation Yrotation
									JOINT RFingers
									{
OFFSET 0 -0.680540 0.000000
CHANNELS 3 Zrotation Xrotation Yrotation
										End Site
										{
OFFSET 0 -0.548670 0.000000
										}
									}
								}
								JOINT RThumb
								{
OFFSET 0 0.000000 0.000000
CHANNELS 3 Zrotation Xrotation Yrotation
									End Site
									{
OFFSET 0 -0.557050 0.557050
									}
								}
							}
						}
					}
				}
			}
		}
	}
}
MOTION
Frames: 8
Frame Time: 0.008333333333333333
8.486500 15.132200 42.441400 -176.050000 4.916400 -179.079000 0.000000 0.000000 0.000000 -22.116800 -22.150500 -4.102500 3.133500 10.908100 31.970600 2.715400 13.360600 -38.049600 0.662100 -5.204100 -14.491700 0.000000 0.000000 0.000000 29.784900 18.289200 -1.782900 -1.822000 -8.485000 24.197300 -0.747000 -13.205300 -25.924900 -0.032000 -1.154900 3.175200 4.122300 1.392400 4.408400 0.657600 2.287100 -3.570400 -1.845600 1.005900 -6.063900 -3.985100 -0.544000 -8.601100 3.913500 0.339200 22.771900 2.101300 0.727600 8.473300 0.000000 0.000000 0.000000 0.963500 9.938300 -29.983100 25.357100 -36.566700 8.501700 9.394400 -8.952600 35.780300 0.000000 0.000000 0.000000 -7.125000 0.000000 0.000000 -12.874700 -5.366300 -14.375200 0.000000 0.000000 0.000000 -5.201400 13.307700 55.117400 -19.904300 -30.526900 -5.482700 134.251000 -39.608500 -62.120900 0.000000 0.000000 0.000000 7.125000 0.000000 -0.000000 -172.549700 50.094100 -0.940100
8.497752 15.125612 42.463158 -179.306646 5.210143 -180.672554 0.000000 0.000000 0.000000 -26.319977 -21.379983 -0.895088 2.497878 9.834020 28.440741 2.286720 14.654662 -36.816051 0.435755 -4.235216 -11.739573 0.000000 0.000000 0.000000 26.709496 18.681590 -2.139753 -2.404705 -9.662495 27.890493 -1.405806 -11.945426 -29.545583 -0.150048 -2.495571 6.877358 0.836355 1.513273 5.454307 -0.133758 2.119945 -3.072861 -0.837379 1.022160 -6.223647 -1.536143 0.584462 -7.689310 1.708616 1.827894 21.088293 1.043491 1.362009 7.724914 0.000000 0.000000 0.000000 1.257852 9.396230 -27.275947 25.085890 -36.291704 8.340711 -4.927586 9.928494 36.349427 0.000000 0.000000 0.000000 -7.125000 0.000000 0.000000 -20.367352 -4.521833 -23.388045 0.000000 0.000000 0.000000 -5.015157 13.014640 54.175902 -19.774607 -30.369859 -5.416882 133.194866 -39.337332 -62.697621 0.000000 0.000000 0.000000 7.125000 0.000000 0.000000 -172.636332 49.297808 -0.784231
8.506546 15.117783 42.483581 -179.451910 5.063553 -180.810139 0.000000 0.000000 0.000000 -26.671063 -21.913999 -0.447907 2.487200 9.814518 28.378276 2.509710 14.033674 -37.494247 0.177661 -2.695214 -7.432472 0.000000 0.000000 0.000000 26.584803 18.515383 -2.169772 -2.430381 -9.710161 28.043159 -1.465547 -11.767020 -29.796041 -0.173749 -2.684156 7.400690 0.565116 1.371404 5.770155 0.160270 1.926506 -3.076717 -0.367977 0.942872 -6.431834 1.180340 3.949878 -7.559652 0.728819 6.239672 20.311978 0.634961 3.557823 7.494441 0.000000 0.000000 0.000000 1.397247 9.602780 -28.322606 24.257143 -35.434856 7.855181 -4.073167 9.053113 36.374744 0.000000 0.000000 0.000000 -7.125000 0.000000 0.000000 -19.934775 -4.591646 -22.847554 0.000000 0.000000 0.000000 -5.528201 12.934785 53.975726 -19.842337 -30.451823 -5.451248 132.602732 -40.109374 -62.604684 0.000000 0.000000 0.000000 7.125000 0.000000 0.000000 -172.926904 49.180703 -0.732650
8.520424 15.122725 42.504521 -179.466798 4.430213 -180.508421 0.000000 0.000000 0.000000 -26.512051 -22.458699 -0.752537 2.483665 9.808065 28.357423 2.669648 12.252555 -37.072377 0.016581 -0.766431 -2.106773 0.000000 0.000000 0.000000 26.546095 18.663323 -2.515202 -2.437644 -9.723601 28.086314 -1.500341 -12.234597 -30.399869 -0.198894 -2.871834 7.922072 0.907516 1.532145 5.781059 0.061760 2.168846 -3.158169 -0.691321 1.045669 -6.506043 4.642402 9.068551 -6.509003 0.067785 11.093779 19.100458 0.147817 5.353652 7.185666 0.000000 0.000000 0.000000 2.832470 9.651481 -31.022945 23.211434 -34.318864 7.257329 -1.675862 9.852850 35.779683 0.000000 0.000000 0.000000 -7.125000 0.000000 0.000000 -18.704750 -4.181308 -21.142489 0.000000 0.000000 0.000000 -5.111218 13.220228 52.763210 -20.073297 -30.730562 -5.568736 133.061878 -40.204034 -62.570334 0.000000 0.000000 0.000000 7.125000 0.000000 0.000000 -172.765833 49.355989 -0.780688
8.529692 15.127580 42.516345 -179.037766 3.617545 -180.099145 0.000000 0.000000 0.000000 -25.741094 -22.726113 -1.549056 2.562370 9.950424 28.816378 2.932256 9.314456 -36.603038 0.042226 -1.324072 -3.640977 0.000000 0.000000 0.000000 26.932892 18.535138 -2.849293 -2.388095 -9.631618 27.791757 -1.439005 -12.613226 -30.313857 -0.224316 -3.048427 8.413553 1.610422 1.659751 5.644934 0.304217 2.421631 -3.240903 -0.857466 1.148862 -6.494059 7.643545 12.744566 -4.976595 -1.747938 16.296036 17.709969 -0.468173 7.982246 7.022489 0.000000 0.000000 0.000000 3.580331 9.475539 -33.152568 21.926763 -32.894056 6.546043 -0.003463 11.926694 36.290368 0.000000 0.000000 0.000000 -7.125000 0.000000 0.000000 -17.849998 -4.795850 -20.252698 0.000000 0.000000 0.000000 -5.249653 13.617532 52.258751 -20.049728 -30.702132 -5.556668 132.897763 -41.791970 -62.587871 0.000000 0.000000 0.000000 7.125000 0.000000 0.000000 -172.820710 49.289308 -0.762895
8.533631 15.124431 42.484339 -179.161880 2.739307 -180.277825 0.000000 0.000000 0.000000 -26.172610 -23.256698 -0.869941 2.524878 9.883034 28.598909 3.115913 8.526453 -37.103364 0.371001 -3.911558 -10.828097 0.000000 0.000000 0.000000 26.912241 18.213172 -2.511961 -2.393838 -9.642298 27.826087 -1.450051 -13.089465 -30.783237 -0.256710 -3.259499 9.001988 1.965181 2.105107 5.279975 0.185150 3.025755 -3.088863 -1.224419 1.434442 -6.085021 9.795471 15.319714 -3.486208 -2.915721 19.968883 16.706767 -0.840657 9.849793 6.975871 0.000000 0.000000 0.000000 4.385251 9.802667 -35.320987 21.594702 -32.515937 6.366650 -1.480212 13.770037 37.272892 0.000000 0.000000 0.000000 -7.125000 0.000000 0.000000 -18.629263 -5.612502 -21.479937 0.000000 0.000000 0.000000 -4.743965 14.260652 50.587629 -19.886056 -30.504780 -5.473417 132.217041 -42.658037 -62.356320 0.000000 0.000000 0.000000 7.125000 0.000000 0.000000 -173.232211 49.249181 -0.712061
8.542464 15.125894 42.477911 -179.221326 2.096837 -179.857743 0.000000 0.000000 0.000000 -25.972506 -23.474626 -1.468760 2.540154 9.910541 28.687474 3.232668 7.492283 -37.154611 0.785390 -5.656733 -15.791884 0.000000 0.000000 0.000000 26.671772 18.110330 -3.013566 -2.399282 -9.652481 27.858492 -1.508529 -13.013522 -31.090468 -0.313853 -3.601078 9.957104 2.271373 2.776904 5.333019 -0.070035 3.958510 -3.472861 -1.770534 1.872932 -6.453623 11.341831 16.351833 -2.437587 -4.358982 21.606440 15.592651 -1.378278 10.672593 6.883206 0.000000 0.000000 0.000000 5.163923 10.782559 -37.746944 21.773888 -32.720588 6.463229 2.316351 11.592935 37.547793 0.000000 0.000000 0.000000 -7.125000 0.000000 0.000000 -16.701139 -6.207960 -19.202956 0.000000 0.000000 0.000000 -4.467732 15.247561 50.268937 -20.023133 -30.670187 -5.543179 133.828303 -39.759810 -62.642578 0.000000 0.000000 0.000000 7.125000 0.000000 0.000000 -172.415287 49.541774 -0.853780
8.554290 15.111976 42.457930 -178.875666 0.627733 -179.997788 0.000000 0.000000 0.000000 -25.495445 -23.707514 -1.703146 2.599584 10.016760 29.031045 2.697320 7.346151 -34.263840 0.654777 -5.173430 -14.404401 0.000000 0.000000 0.000000 27.146105 17.542183 -2.770722 -2.373061 -9.603277 27.701416 -1.520633 -13.624309 -31.677841 -0.490346 -4.489560 12.458266 2.844400 3.086326 5.637779 0.025328 4.443643 -3.562553 -2.062570 2.084808 -6.670074 10.956440 17.092254 -2.103254 -4.598647 22.733656 14.776204 -1.334299 11.212591 6.633737 0.000000 0.000000 0.000000 4.853538 11.576857 -38.054165 22.144942 -33.140353 6.664938 1.100329 10.979422 37.261314 0.000000 0.000000 0.000000 -7.125000 0.000000 0.000000 -17.312634 -5.818990 -19.866375 0.000000 0.000000 0.000000 -4.909286 15.572352 51.396175 -19.934676 -30.563554 -5.498091 133.660197 -39.692931 -62.574619 0.000000 0.000000 0.000000 7.125000 0.000000 0.000000 -172.523144 49.542072 -0.841896
